
nColumns=19
nRows=23
DataType=double
version=3
OpenSimVersion=4.4-2022-10-11-798caa840
endheader
time	ground_force_calcn_r_vx	ground_force_calcn_r_vy	ground_force_calcn_r_vz	ground_force_calcn_r_px	ground_force_calcn_r_py	ground_force_calcn_r_pz	ground_force_calcn_r_mx	ground_force_calcn_r_my	ground_force_calcn_r_mz	ground_force_calcn_l_vx	ground_force_calcn_l_vy	ground_force_calcn_l_vz	ground_force_calcn_l_px	ground_force_calcn_l_py	ground_force_calcn_l_pz	ground_force_calcn_l_mx	ground_force_calcn_l_my	ground_force_calcn_l_mz
2.795	-21.4141	464.921	-38.7789	1.16426	0	-0.402377	-0.0855494	1.85736	-0.154922	-8.149660000000001	2.57945	0.20532	1.32849	0	-0.508352	8.25006e-07	-2.61123e-07	-2.07849e-08
2.8	-19.6792	464.63	-38.6227	1.16501	0	-0.402503	-0.0807099	1.90558	-0.158402	-8.10317	2.57448	0.260887	1.35084	0	-0.509065	1.1754e-06	-3.73439e-07	-3.78427e-08
2.805	-17.787	465.405	-38.4634	1.16572	0	-0.402615	-0.0750812	1.96453	-0.162359	-7.82317	2.49682	0.304466	1.37313	0	-0.5099359999999999	1.59544e-06	-5.09196e-07	-6.20921e-08
2.81	-15.7364	467.275	-38.2813	1.1664	0	-0.402728	-0.0684424	2.03233	-0.166497	-7.24799	2.32546	0.327637	1.39537	0	-0.51096	2.04649e-06	-6.56599e-07	-9.25091e-08
2.815	-13.553	470.251	-38.0676	1.16703	0	-0.40285	-0.0606761	2.10529	-0.170427	-6.35304	2.05052	0.323254	1.41756	0	-0.512128	2.46582e-06	-7.95874e-07	-1.25466e-07
2.82	-11.2458	474.325	-37.8048	1.16763	0	-0.402991	-0.0516213	2.17728	-0.173534	-5.15548	1.67492	0.287825	1.43974	0	-0.513433	2.78379e-06	-9.04397e-07	-1.55416e-07
2.825	-8.83623	479.382	-37.4662	1.1682	0	-0.403158	-0.0413363	2.24257	-0.175269	-3.77316	1.23444	0.22628	1.46192	0	-0.514871	2.93142e-06	-9.590569999999999e-07	-1.758e-07
2.83	-6.3317	485.263	-37.0474	1.16873	0	-0.403353	-0.0300269	2.30127	-0.17569	-2.4098	0.7942669999999999	0.152828	1.48411	0	-0.516455	2.82305e-06	-9.304740000000001e-07	-1.79036e-07
2.835	-3.75576	491.782	-36.5488	1.16925	0	-0.403578	-0.0179507	2.35048	-0.174686	-1.28405	0.426557	0.08516609999999999	1.50629	0	-0.518231	2.43514e-06	-8.08943e-07	-1.61513e-07
2.84	-1.10971	498.77	-35.996	1.16974	0	-0.403827	-0.00530745	2.38549	-0.17216	-0.532504	0.178396	0.0366295	1.52828	0	-0.520359	1.86323e-06	-6.242060000000001e-07	-1.28166e-07
2.845	1.57254	506.113	-35.4184	1.17023	0	-0.404097	0.00747555	2.40597	-0.168373	-0.14237	0.0481407	0.0100814	1.54905	0	-0.523658	1.2561e-06	-4.24736e-07	-8.89458e-08
2.85	4.27779	513.708	-34.8522	1.17071	0	-0.404381	0.0200917	2.41276	-0.163692	-0.00375445	0.00128849	0.000249695	1.49979	0	-0.578771	-5.9061e-08	2.02691e-08	3.92793e-09
2.855	7.00413	521.538	-34.3555	1.17119	0	-0.404682	0.0323967	2.4123	-0.158906	-0.00347298	0.00120181	0.000240856	1.54053	0	-0.545139	1.46759e-07	-5.07855e-08	-1.0178e-08
2.86	9.723699999999999	529.601	-33.9389	1.17169	0	-0.405	0.0443456	2.41528	-0.15478	-0.00198432	0.000694492	0.000138763	1.5574	0	-0.535525	7.375879999999999e-08	-2.58148e-08	-5.15792e-09
2.865	12.4723	537.978	-33.6298	1.1722	0	-0.405335	0.0562838	2.42774	-0.151762	-0.00102158	0.00036237	7.17168e-05	1.57288	0	-0.536351	4.30687e-08	-1.52771e-08	-3.02349e-09
2.87	15.2727	546.706	-33.4386	1.17274	0	-0.405693	0.0683367	2.4462	-0.149619	-0.000492657	0.000177563	3.45352e-05	1.58666	0	-0.548769	3.74109e-08	-1.34836e-08	-2.6225e-09
2.875	18.1731	555.835	-33.3413	1.1733	0	-0.406076	0.0806997	2.46825	-0.148056	-0.000230929	8.479620000000001e-05	1.56948e-05	1.58519	0	-0.569624	3.44469e-08	-1.26488e-08	-2.34115e-09
2.88	21.2117	565.395	-33.3351	1.17389	0	-0.406487	0.0935763	2.49427	-0.14706	-0.000162861	6.104960000000001e-05	9.850750000000001e-06	1.54391	0	-0.591651	3.38473e-08	-1.26879e-08	-2.04727e-09
2.885	24.4231	575.432	-33.4003	1.17451	0	-0.406927	0.107053	2.52227	-0.146402	-0.000265105	0.000101317	1.37947e-05	1.50346	0	-0.589508	2.84686e-08	-1.088e-08	-1.48136e-09
2.89	27.8287	585.971	-33.5198	1.17516	0	-0.407401	0.121131	2.55058	-0.145903	-0.000636558	0.000248254	3.00895e-05	1.49766	0	-0.582095	3.29625e-08	-1.28552e-08	-1.55811e-09
2.895	31.3928	596.931	-33.6856	1.17585	0	-0.407914	0.13555	2.57747	-0.14545	-0.00153305	0.000611654	6.691269999999999e-05	1.50344	0	-0.57917	3.77387e-08	-1.5057e-08	-1.64718e-09
2.9	35.081	608.244	-33.8695	1.17657	0	-0.408472	0.149915	2.59926	-0.144738	-0.00338994	0.00138716	0.000136654	1.51341	0	-0.57824	4.08369e-08	-1.67105e-08	-1.6462e-09
2.905	38.8953	620.046	-34.0531	1.17733	0	-0.409083	0.163959	2.61374	-0.143547	-0.00677194	0.00284923	0.000250209	1.52484	0	-0.578062	4.21352e-08	-1.7728e-08	-1.5568e-09
